<svg width="18" height="18" viewBox="0 0 18 18" fill="none" xmlns="http://www.w3.org/2000/svg">
<path fill-rule="evenodd" clip-rule="evenodd" d="M17.0628 0.784089C16.0174 -0.261359 14.3224 -0.261367 13.277 0.784089L11.778 2.28305L4.7231 9.33791C4.60874 9.45231 4.52761 9.59562 4.48838 9.7525L3.59604 13.3219C3.52001 13.626 3.60911 13.9477 3.83075 14.1693C4.05239 14.3909 4.37407 14.4801 4.67817 14.404L8.24752 13.5117C8.40449 13.4724 8.54771 13.3913 8.66211 13.2769L15.6657 6.27338L17.216 4.7231C18.2614 3.67765 18.2614 1.98264 17.216 0.937189L17.0628 0.784089ZM14.5389 2.04606C14.8874 1.69758 15.4524 1.69758 15.8009 2.04606L15.954 2.19916C16.3025 2.54764 16.3025 3.11265 15.954 3.46113L15.0469 4.36822L13.659 2.92602L14.5389 2.04606ZM12.3968 4.18822L13.7847 5.63042L7.57496 11.8402L5.68815 12.3119L6.15984 10.4251L12.3968 4.18822ZM1.7847 5.50719C1.7847 5.01436 2.18422 4.61484 2.67704 4.61484H7.13878C7.63163 4.61484 8.03113 4.21533 8.03113 3.72249C8.03113 3.22967 7.63163 2.83014 7.13878 2.83014H2.67704C1.19856 2.83014 0 4.0287 0 5.50719V15.323C0 16.8015 1.19856 18 2.67704 18H12.4929C13.9714 18 15.1699 16.8015 15.1699 15.323V10.8612C15.1699 10.3685 14.7704 9.96889 14.2776 9.96889C13.7847 9.96889 13.3852 10.3685 13.3852 10.8612V15.323C13.3852 15.8158 12.9857 16.2153 12.4929 16.2153H2.67704C2.18422 16.2153 1.7847 15.8158 1.7847 15.323V5.50719Z" fill="#555555"/>
</svg>
