<svg width="15" height="15" viewBox="0 0 15 15" fill="none" xmlns="http://www.w3.org/2000/svg">
<path d="M5.69609 1.90797C5.47674 1.35958 4.94562 1 4.355 1H2.36839C1.61264 1 1 1.6125 1 2.36823C1 8.79198 6.20765 13.9996 12.6314 13.9996C13.3871 13.9996 13.9996 13.3869 13.9996 12.6312L14 10.6443C14 10.0536 13.6405 9.52264 13.0921 9.30323L11.188 8.54188C10.6955 8.34487 10.1346 8.43355 9.72702 8.77321L9.23563 9.18306C8.66177 9.6613 7.8173 9.62324 7.28908 9.09502L5.90536 7.71005C5.37712 7.18176 5.33807 6.33801 5.81633 5.76414L6.22607 5.27276C6.56572 4.86519 6.6552 4.30419 6.45819 3.8116L5.69609 1.90797Z" stroke="#555555" stroke-width="1.4444" stroke-linecap="round" stroke-linejoin="round"/>
</svg>
