<svg width="13" height="13" viewBox="0 0 13 13" fill="none" xmlns="http://www.w3.org/2000/svg">
<path fill-rule="evenodd" clip-rule="evenodd" d="M10.7657 11.7H2.23481C1.77566 11.7 1.4366 11.2469 1.60978 10.8303C2.4133 8.90369 4.301 7.8 6.4999 7.8C8.69946 7.8 10.5872 8.90369 11.3907 10.8303C11.5639 11.2469 11.2248 11.7 10.7657 11.7ZM3.84583 3.89999C3.84583 2.46609 5.03685 1.29999 6.4999 1.29999C7.96362 1.29999 9.15397 2.46609 9.15397 3.89999C9.15397 5.33389 7.96362 6.5 6.4999 6.5C5.03685 6.5 3.84583 5.33389 3.84583 3.89999ZM12.9712 11.4634C12.4888 9.28004 10.98 7.66868 8.99406 6.93743C10.0464 6.10738 10.6602 4.76511 10.4346 3.29546C10.1731 1.59051 8.72534 0.226185 6.97764 0.027285C4.56509 -0.247665 2.5188 1.59184 2.5188 3.89999C2.5188 5.12849 3.10004 6.22308 4.0064 6.93743C2.01983 7.66868 0.511656 9.28004 0.0286156 11.4634C-0.146553 12.257 0.506349 13 1.33508 13H11.6647C12.4941 13 13.147 12.257 12.9712 11.4634Z" fill="#555555"/>
</svg>
