<svg width="6" height="22" viewBox="0 0 6 22" fill="none" xmlns="http://www.w3.org/2000/svg">
<path d="M2 3.28606C2 2.57596 2.57561 2.00035 3.28571 2.00035C3.99581 2.00035 4.57143 2.57596 4.57143 3.28606C4.57143 3.99616 3.99581 4.57178 3.28571 4.57178C2.57561 4.57178 2 3.99616 2 3.28606Z" fill="#555555" stroke="#292D32" stroke-width="2.57143" stroke-linecap="round" stroke-linejoin="round"/>
<path d="M2 10.9994C2 10.2893 2.57561 9.71373 3.28571 9.71373C3.99581 9.71373 4.57143 10.2893 4.57143 10.9994C4.57143 11.7095 3.99581 12.2852 3.28571 12.2852C2.57561 12.2852 2 11.7095 2 10.9994Z" fill="#555555" stroke="#292D32" stroke-width="2.57143" stroke-linecap="round" stroke-linejoin="round"/>
<path d="M2 18.7143C2 18.0042 2.57561 17.4286 3.28571 17.4286C3.99581 17.4286 4.57143 18.0042 4.57143 18.7143C4.57143 19.4244 3.99581 20 3.28571 20C2.57561 20 2 19.4244 2 18.7143Z" fill="#555555" stroke="#292D32" stroke-width="2.57143" stroke-linecap="round" stroke-linejoin="round"/>
</svg>
