<svg width="12" height="16" viewBox="0 0 12 16" fill="none" xmlns="http://www.w3.org/2000/svg">
<mask id="path-1-inside-1_451_2057" fill="white">
<path d="M5.72084 0C2.56719 0 1.37607e-06 2.5672 0 5.72084C-1.96582e-06 11.2699 5.39832 15.4885 5.39832 15.4885C5.49048 15.562 5.60487 15.6021 5.72276 15.6021C5.84065 15.6021 5.95505 15.562 6.0472 15.4885C6.0472 15.4885 11.4455 11.2699 11.4455 5.72084C11.4455 2.5672 8.8745 0 5.72084 0ZM5.72084 1.0405C8.3123 1.0405 10.405 3.12938 10.405 5.72084C10.405 10.2604 6.29437 13.847 5.72468 14.3328C5.15771 13.8495 1.0405 10.2622 1.0405 5.72084C1.0405 3.12938 3.12938 1.0405 5.72084 1.0405Z"/>
</mask>
<path d="M5.72084 0C2.56719 0 1.37607e-06 2.5672 0 5.72084C-1.96582e-06 11.2699 5.39832 15.4885 5.39832 15.4885C5.49048 15.562 5.60487 15.6021 5.72276 15.6021C5.84065 15.6021 5.95505 15.562 6.0472 15.4885C6.0472 15.4885 11.4455 11.2699 11.4455 5.72084C11.4455 2.5672 8.8745 0 5.72084 0ZM5.72084 1.0405C8.3123 1.0405 10.405 3.12938 10.405 5.72084C10.405 10.2604 6.29437 13.847 5.72468 14.3328C5.15771 13.8495 1.0405 10.2622 1.0405 5.72084C1.0405 3.12938 3.12938 1.0405 5.72084 1.0405Z" fill="#555555"/>
<path d="M0 5.72084L-1.5 5.72084L0 5.72084ZM5.39832 15.4885L6.33389 14.316L6.32794 14.3113L6.32195 14.3066L5.39832 15.4885ZM6.0472 15.4885V13.9885H5.52209L5.11164 14.316L6.0472 15.4885ZM11.4455 5.72084L12.9455 5.72084L11.4455 5.72084ZM10.405 5.72084L11.905 5.72084V5.72084L10.405 5.72084ZM5.72468 14.3328L4.75154 15.4743L5.7248 16.304L6.69796 15.4742L5.72468 14.3328ZM1.0405 5.72084L2.5405 5.72084L1.0405 5.72084ZM5.72084 -1.5C1.73876 -1.5 -1.5 1.73877 -1.5 5.72084L1.5 5.72084C1.5 3.39562 3.39562 1.5 5.72084 1.5V-1.5ZM-1.5 5.72084C-1.5 8.97247 0.0712466 11.736 1.51179 13.6022C2.24342 14.5499 2.97268 15.307 3.52012 15.8286C3.79468 16.0902 4.02578 16.2947 4.19166 16.4366C4.27466 16.5075 4.34152 16.5629 4.38955 16.6021C4.41357 16.6217 4.4329 16.6372 4.44719 16.6487C4.45434 16.6544 4.46024 16.659 4.46484 16.6627C4.46714 16.6645 4.46911 16.666 4.47076 16.6673C4.47158 16.668 4.47232 16.6686 4.47298 16.6691C4.47331 16.6693 4.47374 16.6697 4.4739 16.6698C4.47431 16.6701 4.4747 16.6704 5.39832 15.4885C6.32195 14.3066 6.3223 14.3069 6.32263 14.3071C6.32271 14.3072 6.32302 14.3074 6.32318 14.3076C6.32351 14.3078 6.32376 14.308 6.32393 14.3081C6.32426 14.3084 6.32428 14.3084 6.32399 14.3082C6.3234 14.3077 6.32155 14.3063 6.31848 14.3038C6.31235 14.2989 6.30137 14.2901 6.28585 14.2774C6.2548 14.2521 6.20568 14.2115 6.14107 14.1562C6.01173 14.0457 5.82108 13.8773 5.58955 13.6567C5.12481 13.2139 4.50449 12.5695 3.88654 11.769C2.62791 10.1385 1.5 8.01827 1.5 5.72084L-1.5 5.72084ZM4.46276 16.661C4.82072 16.9466 5.26501 17.1021 5.72276 17.1021V14.1021C5.94473 14.1021 6.16023 14.1775 6.33389 14.316L4.46276 16.661ZM5.72276 17.1021C6.18051 17.1021 6.6248 16.9466 6.98276 16.661L5.11164 14.316C5.28529 14.1775 5.50079 14.1021 5.72276 14.1021V17.1021ZM6.0472 15.4885C6.97082 16.6704 6.97121 16.6701 6.97162 16.6698C6.97179 16.6697 6.97222 16.6693 6.97255 16.6691C6.9732 16.6686 6.97394 16.668 6.97477 16.6673C6.97641 16.666 6.97839 16.6645 6.98069 16.6627C6.98528 16.659 6.99118 16.6544 6.99833 16.6487C7.01263 16.6372 7.03195 16.6217 7.05597 16.6021C7.104 16.5629 7.17086 16.5075 7.25386 16.4366C7.41974 16.2947 7.65084 16.0902 7.9254 15.8286C8.47285 15.307 9.20211 14.5499 9.93374 13.6022C11.3743 11.736 12.9455 8.97247 12.9455 5.72084L9.94552 5.72084C9.94553 8.01827 8.81761 10.1385 7.55899 11.769C6.94104 12.5695 6.32072 13.2139 5.85598 13.6567C5.62444 13.8773 5.4338 14.0457 5.30445 14.1562C5.23985 14.2115 5.19073 14.2521 5.15968 14.2774C5.14416 14.2901 5.13317 14.2989 5.12704 14.3038C5.12398 14.3063 5.12213 14.3077 5.12154 14.3082C5.12124 14.3084 5.12126 14.3084 5.1216 14.3081C5.12177 14.308 5.12202 14.3078 5.12234 14.3076C5.12251 14.3074 5.12282 14.3072 5.1229 14.3071C5.12323 14.3069 5.12358 14.3066 6.0472 15.4885ZM12.9455 5.72084C12.9455 1.73746 9.70162 -1.5 5.72084 -1.5V1.5C8.04737 1.5 9.94552 3.39693 9.94552 5.72084L12.9455 5.72084ZM5.72084 2.5405C7.48548 2.5405 8.90502 3.95941 8.90502 5.72084L11.905 5.72084C11.905 2.29935 9.13913 -0.459498 5.72084 -0.459498V2.5405ZM8.90502 5.72084C8.90502 7.54563 8.07091 9.26943 7.06157 10.67C6.06411 12.0541 4.99677 12.9822 4.7514 13.1915L6.69796 15.4742C7.02229 15.1976 8.29512 14.0895 9.49541 12.424C10.6838 10.7749 11.905 8.43565 11.905 5.72084L8.90502 5.72084ZM6.69783 13.1913C6.4533 12.9829 5.38508 12.0551 4.38643 10.6709C3.37581 9.27016 2.5405 7.54598 2.5405 5.72084L-0.459498 5.72084C-0.459499 8.43706 0.763799 10.7772 1.95352 12.4262C3.15523 14.0918 4.42909 15.1994 4.75154 15.4743L6.69783 13.1913ZM2.5405 5.72084C2.5405 3.95781 3.95781 2.5405 5.72084 2.5405V-0.459498C2.30095 -0.459498 -0.459497 2.30095 -0.459498 5.72084L2.5405 5.72084Z" fill="#555555" mask="url(#path-1-inside-1_451_2057)"/>
<mask id="path-3-inside-2_451_2057" fill="white">
<path d="M5.72043 3.12109C4.29031 3.12109 3.1211 4.29032 3.12109 5.72043C3.12108 7.15056 4.2903 8.3236 5.72043 8.3236C7.15056 8.3236 8.32361 7.15056 8.3236 5.72043C8.3236 4.29032 7.15055 3.12109 5.72043 3.12109ZM5.72043 4.1616C6.58836 4.1616 7.2831 4.8525 7.2831 5.72043C7.28311 6.58836 6.58836 7.2831 5.72043 7.2831C4.8525 7.2831 4.16159 6.58836 4.1616 5.72043C4.1616 4.8525 4.8525 4.1616 5.72043 4.1616Z"/>
</mask>
<path d="M5.72043 3.12109C4.29031 3.12109 3.1211 4.29032 3.12109 5.72043C3.12108 7.15056 4.2903 8.3236 5.72043 8.3236C7.15056 8.3236 8.32361 7.15056 8.3236 5.72043C8.3236 4.29032 7.15055 3.12109 5.72043 3.12109ZM5.72043 4.1616C6.58836 4.1616 7.2831 4.8525 7.2831 5.72043C7.28311 6.58836 6.58836 7.2831 5.72043 7.2831C4.8525 7.2831 4.16159 6.58836 4.1616 5.72043C4.1616 4.8525 4.8525 4.1616 5.72043 4.1616Z" fill="#555555"/>
<path d="M3.12109 5.72043L4.62109 5.72044V5.72043L3.12109 5.72043ZM8.3236 5.72043L6.8236 5.72043V5.72044L8.3236 5.72043ZM7.2831 5.72043L5.7831 5.72043V5.72044L7.2831 5.72043ZM4.1616 5.72043L5.6616 5.72044V5.72043L4.1616 5.72043ZM5.72043 1.62109C3.46188 1.62109 1.6211 3.46189 1.62109 5.72042L4.62109 5.72043C4.6211 5.11874 5.11875 4.62109 5.72043 4.62109V1.62109ZM1.62109 5.72042C1.62108 7.97612 3.45901 9.8236 5.72043 9.8236V6.8236C5.1216 6.8236 4.62109 6.32501 4.62109 5.72044L1.62109 5.72042ZM5.72043 9.8236C7.97897 9.8236 9.82362 7.979 9.8236 5.72042L6.8236 5.72044C6.82361 6.32213 6.32214 6.8236 5.72043 6.8236V9.8236ZM9.8236 5.72042C9.8236 3.45902 7.9761 1.62109 5.72043 1.62109V4.62109C6.32499 4.62109 6.8236 5.12162 6.8236 5.72043L9.8236 5.72042ZM5.72043 5.6616C5.73681 5.6616 5.74626 5.66456 5.75169 5.66683C5.758 5.66947 5.76364 5.67327 5.76839 5.678C5.77312 5.68272 5.77645 5.68784 5.77861 5.69298C5.78039 5.6972 5.7831 5.70528 5.7831 5.72043L8.7831 5.72042C8.7831 4.01926 7.41196 2.6616 5.72043 2.6616V5.6616ZM5.7831 5.72044C5.7831 5.73565 5.78036 5.74432 5.77822 5.74943C5.77568 5.75547 5.77182 5.76134 5.76658 5.76658C5.76135 5.77182 5.75547 5.77568 5.74943 5.77821C5.74432 5.78036 5.73564 5.7831 5.72043 5.7831V8.7831C7.41678 8.7831 8.78311 7.41679 8.7831 5.72042L5.7831 5.72044ZM5.72043 5.7831C5.70527 5.7831 5.69719 5.78039 5.69298 5.77861C5.68783 5.77645 5.68272 5.77312 5.678 5.76839C5.67327 5.76364 5.66947 5.758 5.66683 5.75169C5.66456 5.74627 5.6616 5.73682 5.6616 5.72044L2.6616 5.72042C2.66159 7.41197 4.01926 8.7831 5.72043 8.7831V5.7831ZM5.6616 5.72043C5.6616 5.70411 5.66454 5.69525 5.66644 5.69072C5.66871 5.6853 5.67198 5.68042 5.6762 5.6762C5.68042 5.67198 5.6853 5.6687 5.69072 5.66643C5.69525 5.66454 5.7041 5.6616 5.72043 5.6616V2.6616C4.02407 2.6616 2.6616 4.02408 2.6616 5.72042L5.6616 5.72043Z" fill="#555555" mask="url(#path-3-inside-2_451_2057)"/>
</svg>
